PathFileType	3	(X/Y/Z)	D:\minhoCalibration\240510\subject5_KPNP\preferred\preferred01.trc
DataRate	CameraRate	NumFrames	NumMarkers	Units	OrigDataRate	OrigDataStartFrame	OrigNumFrames
200.0	200.0	24	10	mm	200.0	130	121	
Frame#	Time	Left_Ankle_Outer1			Left_Ankle_Inner1			Left_Knee_Outer1			Left_Knee_Inner1			Left_Wrist1			Right_Wrist1			Right_Knee_Inner1			Right_Knee_Outer1			Right_Ankle_Inner1			Right_Ankle_Outer1			
		X1	Y1	Z1	X2	Y2	Z2	X3	Y3	Z3	X4	Y4	Z4	X5	Y5	Z5	X6	Y6	Z6	X7	Y7	Z7	X8	Y8	Z8	X9	Y9	Z9	X10	Y10	Z10	
130	0.64	-581.42596	75.868469	-678.65369	-615.6864	89.76506	-641.36951	-414.66443	526.56415	-627.35388	-491.48102	517.21167	-575.26056	-420.37527	1011.0109	-784.83868	-741.28015	1063.4344	-720.20294	-818.44019	601.32153	-431.93195	-893.82117	657.19183	-453.70877	-761.97229	351.78574	-815.02148	-827.77655	415.73318	-847.13159
131	0.645	-581.31537	76.038101	-678.99939	-615.07172	89.454231	-642.53296	-414.04437	526.63257	-629.2854	-490.5806	517.5943	-576.41779	-418.0144	1012.1425	-786.07819	-736.22888	1066.7788	-714.01013	-810.95697	613.4187	-412.85202	-886.55695	669.6485	-433.50711	-760.08362	364.47638	-797.38806	-825.66315	429.29388	-828.23962
132	0.65	-581.14679	76.17157	-679.3031	-615.35339	90.671677	-641.07642	-413.66489	526.6994	-631.46039	-489.25491	517.61713	-578.05786	-416.48569	1012.5861	-787.88123	-733.31189	1070.5791	-706.56726	-802.8327	625.76794	-394.02484	-878.92139	682.37744	-414.02264	-758.31158	377.77701	-780.27301	-823.96979	443.19022	-809.80298
133	0.655	-581.00287	76.391403	-679.53381	-615.55554	90.485207	-641.49658	-413.04102	526.67358	-633.50037	-488.15024	517.90857	-579.07104	-415.16699	1013.1346	-789.70654	-727.90192	1073.2137	-699.97644	-794.01404	638.3302	-375.18268	-870.30176	695.2605	-394.7662	-758.09167	391.42667	-762.9201	-822.94159	457.49057	-791.5368
134	0.66	-580.82202	76.721695	-679.89972	-614.8537	90.815529	-642.97815	-412.01334	526.80676	-635.84772	-486.57693	518.15613	-580.67499	-413.56293	1013.8965	-791.76526	-723.77356	1077.4266	-692.11005	-785.4198	651.31824	-357.07779	-861.23798	708.61505	-375.93292	-756.87604	405.73004	-746.67651	-822.55798	472.14032	-773.49219
135	0.665	-580.73254	77.050262	-680.30188	-613.31506	90.622368	-644.30322	-411.27814	526.82062	-638.20721	-484.68967	518.24115	-582.41339	-412.71021	1014.5483	-793.81995	-718.7038	1081.2531	-685.39862	-775.7486	664.177	-339.06543	-851.49811	722.4574	-357.32181	-756.5672	420.42642	-730.5799	-822.50116	487.14429	-755.6441
136	0.67	-580.53748	77.535004	-680.67969	-613.38678	92.032539	-642.32617	-409.98105	526.98584	-641.05096	-483.44702	518.31995	-583.08203	-411.99359	1015.2957	-796.17316	-713.42291	1085.0616	-678.29077	-765.93573	677.45166	-321.82587	-841.52881	736.54358	-338.80051	-756.63678	435.41302	-714.74304	-822.77344	502.6033	-738.05188
137	0.675	-579.8418	77.403481	-681.41095	-613.59619	92.170555	-642.36786	-409.41248	526.82837	-643.71545	-481.1792	518.71405	-584.76099	-411.91696	1015.628	-798.62152	-708.42737	1089.177	-670.79456	-755.40485	690.64246	-304.79379	-830.2182	750.6015	-321.48303	-757.05499	450.38257	-699.05536	-823.19788	518.24207	-720.35565
138	0.68	-579.65515	77.60247	-681.93884	-613.22437	92.411697	-643.31805	-408.36432	526.901	-646.46899	-478.78714	519.88104	-583.72693	-412.00192	1015.4991	-801.31561	-703.23083	1093.5066	-662.65228	-744.0863	703.95276	-288.11099	-818.93683	765.20886	-303.60205	-758.00873	465.62308	-683.52026	-823.96271	534.56134	-703.02081
139	0.685	-579.1673	78.103691	-682.62048	-612.78149	92.44001	-643.83746	-407.40878	526.82874	-649.14148	-476.57742	519.94452	-585.18909	-413.14542	1014.9656	-804.23688	-697.15796	1097.567	-655.83057	-732.32178	717.24841	-272.47287	-805.87262	780.02545	-286.75421	-759.49585	480.96725	-668.07581	-824.78094	550.98602	-685.66101
140	0.69	-578.96808	78.15992	-683.04333	-612.24982	93.027885	-643.75928	-406.37311	526.75415	-651.75409	-474.39456	520.0332	-586.34686	-413.70499	1014.524	-807.03265	-691.47595	1102.1501	-648.04034	-719.46021	730.76093	-256.93112	-792.32703	794.57404	-270.47891	-761.48663	496.43939	-652.81311	-825.78137	567.89569	-668.30066
141	0.695	-578.99854	78.46257	-683.3476	-612.02917	93.28064	-644.05176	-405.44339	526.59711	-654.27124	-472.00943	519.36469	-588.82263	-413.58282	1014.3118	-809.22186	-684.75714	1105.6909	-642.15918	-705.70648	744.10101	-242.17676	-778.00067	809.41498	-254.37236	-764.01624	512.16266	-637.53595	-827.10083	584.98254	-651.00763
142	0.7	-579.15076	78.914062	-683.48901	-611.49274	93.519676	-643.89551	-404.29468	526.43561	-656.65826	-469.1633	519.97736	-588.51422	-416.26218	1012.1199	-813.20386	-678.76141	1110.6199	-634.24457	-691.24152	757.45892	-228.44125	-762.73889	824.73627	-238.77208	-767.05084	528.14697	-622.33075	-828.75391	602.43976	-633.27814
143	0.705	-579.56995	79.206451	-683.31824	-611.64008	94.093536	-643.40015	-403.11624	526.11359	-658.90948	-466.61008	520.01184	-588.95868	-424.01041	1007.944	-817.6933	-671.56226	1114.4473	-628.93634	-675.96375	770.60132	-215.26598	-745.90918	839.53455	-224.5605	-770.31927	544.15198	-607.1012	-830.71283	620.20532	-615.79602
144	0.71	-580.0083	79.631645	-682.92114	-611.56738	94.442131	-643.1618	-401.96603	525.79407	-660.78497	-463.69467	519.37842	-589.43213	-421.70432	1008.7718	-819.72888	-664.45428	1119.3054	-620.79089	-659.92346	783.77509	-203.18231	-728.13416	854.54193	-211.00377	-774.17175	560.62201	-591.59686	-832.7951	638.21869	-598.02704
145	0.715	-580.79675	79.980042	-682.3996	-612.06268	94.963074	-642.39081	-401.08975	525.16058	-662.2561	-460.242	519.22296	-589.63135	-425.43127	1006.7249	-822.9411	-656.27844	1123.5729	-615.42657	-643.11572	796.52722	-191.97813	-709.64771	869.38306	-198.19057	-778.61285	577.45056	-575.79077	-835.00067	656.43433	-579.78076
146	0.72	-581.63647	80.655632	-681.72552	-611.90332	95.809288	-641.2395	-399.47739	524.93469	-663.80859	-456.58157	518.85498	-589.29437	-432.80475	1004.0548	-826.13263	-649.61047	1129.6631	-607.13177	-625.75085	809.12665	-181.63596	-690.17072	884.26178	-186.38469	-783.38861	594.28534	-559.57324	-837.33862	675.0802	-561.52301
147	0.725	-582.48291	81.13623	-680.67041	-612.23108	96.973892	-638.8512	-398.05002	524.45453	-664.9682	-452.69461	518.48828	-588.86011	-437.8804	1001.8782	-829.07568	-643.52808	1134.9209	-602.79321	-607.87146	821.4563	-172.42642	-669.8114	898.91284	-175.85211	-788.62427	611.21405	-542.60394	-839.64185	693.96545	-542.84204
148	0.73	-583.40771	81.932091	-679.58209	-612.33722	97.719696	-636.93158	-396.28546	524.20172	-666.1546	-448.53455	518.04175	-588.14789	-443.30627	999.67426	-831.82697	-635.47437	1138.059	-598.00073	-589.61292	833.53369	-164.12788	-648.5011	913.58801	-166.37961	-794.30048	628.09497	-525.05786	-841.9585	712.75586	-523.60333
149	0.735	-584.24786	82.842087	-678.3219	-612.20856	98.243515	-636.07587	-394.32565	523.91711	-667.12189	-444.04489	517.51343	-587.39642	-446.9223	998.43152	-833.82642	-629.02295	1141.8484	-592.9621	-571.06702	845.11261	-156.84613	-626.41119	927.98145	-158.33226	-799.6991	645.14136	-505.94312	-844.10443	731.91138	-503.17603
150	0.74	-585.01324	83.897659	-676.94543	-612.70721	100.43794	-632.83594	-392.16254	523.77502	-668.04089	-439.33054	517.02222	-586.60785	-456.00677	994.58197	-836.57538	-621.01062	1145.5156	-589.5733	-552.12244	856.31708	-150.83234	-604.02258	941.61322	-151.39787	-805.37689	662.19257	-485.55643	-845.84882	750.55127	-482.04544
151	0.745	-585.77502	84.920639	-675.29272	-612.71185	101.09372	-631.39221	-389.96399	523.72711	-668.86407	-434.59772	516.70367	-585.88629	-459.41406	993.28906	-838.33472	-614.52429	1148.6086	-586.07898	-533.11206	867.20337	-145.93399	-581.16345	954.68414	-146.03732	-811.23962	679.12811	-463.785	-847.92462	769.18488	-459.37082
152	0.75	-586.54236	86.208855	-673.78967	-612.52246	102.92056	-629.05664	-387.86169	523.59082	-669.52228	-429.75656	516.43433	-585.21454	-466.35785	990.72693	-839.65173	-607.27484	1152.012	-583.00214	-514.37781	877.46759	-142.1248	-557.88806	966.57385	-142.6037	-817.0777	695.98529	-440.4321	-849.65411	787.53186	-435.61237
153	0.755	-587.08899	87.479164	-672.1839	-612.04742	103.61856	-627.70599	-385.5473	523.66626	-670.30017	-424.93146	516.24658	-584.77197	-468.80453	987.36969	-844.11267	-600.41492	1154.9819	-580.4903	-495.82678	887.06024	-139.23909	-534.83252	978.16345	-140.22717	-822.88489	712.6322	-415.2233	-851.10016	805.6311	-410.68094
